<svg xmlns="http://www.w3.org/2000/svg" viewBox="0 0 64 64" role="img" aria-label="i-Pace Owners Advocacy Group">
  <title>i-Pace Owners Advocacy Group</title>
  <rect width="64" height="64" rx="14" fill="#12324a"/>
  <path d="M7 42c2-6 7-10 15-12l13-4c8-2 15 1 20 8l4 2c2 1 3 3 3 6v3c0 2-2 4-4 4H7c-3 0-5-2-5-5 0-1 2-2 5-2Z" fill="#ffffff"/>
  <path d="M16 36c2-4 5-6 10-7l9-2c6-1 11 1 15 8l-2 2H15l1-1Z" fill="#ccfbf1"/>
  <path d="M31 29l-2 8h18c-4-6-9-9-16-8Z" fill="#89e3d8"/>
  <path d="M6 42h54v4H6z" fill="#e8f3f4"/>
  <path d="M7 42c3-2 7-3 12-3h25c7 0 12 1 16 3" fill="none" stroke="#0f766e" stroke-width="3" stroke-linecap="round"/>
  <circle cx="18" cy="48" r="8" fill="#0b2233"/>
  <circle cx="47" cy="48" r="8" fill="#0b2233"/>
  <circle cx="18" cy="48" r="3" fill="#ccfbf1"/>
  <circle cx="47" cy="48" r="3" fill="#ccfbf1"/>
  <path d="M7 39h8c-4 1-6 3-7 6H4c0-3 1-5 3-6Z" fill="#dff7f4"/>
  <path d="M57 38h3c1 1 2 2 2 4h-5c-1-2-1-3 0-4Z" fill="#ccfbf1"/>
</svg>
