<svg xmlns="http://www.w3.org/2000/svg" viewBox="0 0 64 64" role="img" aria-label="i-Pace Owners Advocacy Group">
  <rect width="64" height="64" rx="14" fill="#12324a"/>
  <path d="M10 45c10-12 20-18 44-22" fill="none" stroke="#0f766e" stroke-width="8" stroke-linecap="round"/>
  <path d="M15 44h34c3 0 5-2 5-5v-3c0-2-2-4-4-4h-7l-6-7H25l-7 7h-3c-3 0-5 2-5 5v2c0 3 2 5 5 5Z" fill="#ffffff"/>
  <circle cx="23" cy="44" r="5" fill="#0b2233"/>
  <circle cx="43" cy="44" r="5" fill="#0b2233"/>
  <circle cx="23" cy="44" r="2" fill="#ccfbf1"/>
  <circle cx="43" cy="44" r="2" fill="#ccfbf1"/>
  <path d="M25 32h11l-4-4h-4l-3 4Z" fill="#ccfbf1"/>
</svg>
